<svg viewBox="0 0 20 20" xmlns="http://www.w3.org/2000/svg" xmlns:xlink="http://www.w3.org/1999/xlink" width="20.000000" height="20.000000" fill="none" customFrame="#000000">
	<path id="Vector" d="M1.75 0L0 1.75L3.5 5.25L1.25 7.5L7.5 7.5L7.5 1.25L5.25 3.5L1.75 0ZM16.5 5.25L20 1.75L18.25 0L14.75 3.5L12.5 1.25L12.5 7.5L18.75 7.5L16.5 5.25ZM3.5 14.75L0 18.25L1.75 20L5.25 16.5L7.5 18.75L7.5 12.5L1.25 12.5L3.5 14.75ZM18.75 12.5L12.5 12.5L12.5 18.75L14.75 16.5L18.25 20L20 18.25L16.5 14.75L18.75 12.5Z" fill="rgb(0,0,0)" fill-rule="nonzero" />
</svg>
