<svg xmlns="http://www.w3.org/2000/svg" width="180" height="45" fill="none"><path fill="#2F70D9" d="M23.884 18.489q0-2.794-.966-4.165-.965-1.422-2.439-1.93-1.422-.507-2.795-.457l-3.303.05q-1.066 0-1.83.306-.761.253-1.168 1.218-.407.915-.407 2.895v7.11l3.05-.101q4.98-.152 8.029.66 3.099.812 4.725 2.337 1.677 1.472 2.236 3.402.61 1.93.61 4.063 0 3.352-1.626 5.688-1.575 2.286-4.37 3.454t-6.352 1.168H0v-3.352q1.17-.05 1.931-.304.813-.255 1.22-1.169.457-.914.457-2.945V16.965q0-1.372.05-2.641.104-1.27.153-1.93a100 100 0 0 1-2.032.102q-1.22 0-1.779.05v-3.91h26.933l.254 9.853zM10.976 36.112q0 1.37-.05 2.59t-.153 1.88h3.354q.813-.052 1.575-.051 3.1-.154 4.523-2.032 1.423-1.88 1.423-4.825 0-2.64-.966-4.063-.965-1.422-2.49-1.98a8.7 8.7 0 0 0-3.1-.56h-2.184a12.5 12.5 0 0 0-1.932.051zm36.29 8.075a40 40 0 0 1-.152-1.168q0-.508-.051-1.168-1.728 1.727-3.659 2.438a11.3 11.3 0 0 1-3.913.71Q36.24 45 34.41 43.07q-1.83-1.929-1.83-4.824 0-2.437 1.22-4.165 1.27-1.726 3.303-2.793 2.083-1.117 4.573-1.676a26.2 26.2 0 0 1 5.082-.71v-2.642q0-1.32-.356-2.387-.304-1.066-1.118-1.676-.762-.609-2.185-.559-.965.051-1.88.407a4.5 4.5 0 0 0-1.575 1.015q.405.458.508 1.016.102.508.102.914 0 1.017-.813 2.133-.814 1.067-2.592 1.016-1.524-.051-2.338-1.066-.813-1.016-.813-2.387 0-2.032 1.423-3.505 1.474-1.523 3.913-2.336 2.44-.863 5.386-.863 4.472 0 6.912 2.336 2.49 2.286 2.49 7.364v2.946q0 1.219-.051 2.438v2.945q0 .71-.051 2.032a52 52 0 0 1-.152 2.438 16 16 0 0 1 1.829-.102 30 30 0 0 1 1.474-.05v3.86zm-.559-11.681a16.5 16.5 0 0 0-2.693.508q-1.27.356-2.236.965a5.1 5.1 0 0 0-1.474 1.473 3.73 3.73 0 0 0-.508 1.93q.052 1.422.915 2.031t1.982.61q1.168 0 2.185-.508a7 7 0 0 0 1.83-1.32v-5.689m26.294-10.411q-1.373 0-2.033.558-.61.559-.813 1.575a16 16 0 0 0-.153 2.387v9.395q0 .71-.05 2.032a52 52 0 0 1-.153 2.438 14 14 0 0 1 1.779-.102 34 34 0 0 1 1.524-.05v3.86H59.788v-3.302q1.423 0 2.033-.559.609-.558.762-1.574.203-1.067.203-2.387V26.97q0-.711.051-2.031t.153-2.438q-.813.051-1.779.101a31 31 0 0 1-1.524.051v-3.86H73zm7.52.965 2.44 2.539-14.585 14.017-2.49-2.59zm8.944-.965q-1.372 0-2.032.558-.61.559-.814 1.575a16 16 0 0 0-.152 2.387v9.395q0 .71-.05 2.032a52 52 0 0 1-.153 2.438 14 14 0 0 1 1.778-.102 34 34 0 0 1 1.525-.05v3.86H76.253v-3.302q1.422 0 2.032-.559.61-.558.763-1.574.203-1.067.203-2.387V26.97q0-.711.05-2.031.052-1.32.153-2.438-.812.051-1.778.101a31 31 0 0 1-1.525.051v-3.86h13.314zm2.958 22.092v-3.301q1.422 0 2.033-.559.66-.558.813-1.574.203-1.067.203-2.387V26.97q0-.711.05-2.031.052-1.32.153-2.438-.813.051-1.778.101a31 31 0 0 1-1.525.051v-3.86h13.315v3.302q-1.425 0-2.084.558-.609.559-.762 1.575a16 16 0 0 0-.153 2.387v2.387h2.44l3.658-4.216q.66-.71 1.068-1.219.457-.507.914-.914h-2.693v-3.86h11.434v3.25q-1.779.204-3.151.864a9.8 9.8 0 0 0-2.388 1.473 19 19 0 0 0-1.677 1.676l-3.252 3.606q.762.406 1.473 1.117.762.66 1.83 2.082l3.404 4.47q.306.355.763.965.507.609 1.118 1.219a7.3 7.3 0 0 0 1.321.965q.71.406 1.473.406v3.301h-5.843q-1.627 0-2.846-1.117-1.22-1.169-2.795-3.301-.915-1.22-1.931-2.59a162 162 0 0 0-1.83-2.642 49 49 0 0 0-1.321-1.98l-1.169.05v3.403a59 59 0 0 1-.203 4.47 14 14 0 0 1 1.779-.102q.965-.05 1.524-.05v3.86zm44.914 0a36 36 0 0 1-.152-1.168q0-.508-.051-1.168-1.728 1.727-3.659 2.438a11.2 11.2 0 0 1-3.913.71q-3.252.001-5.081-1.93-1.83-1.929-1.83-4.824 0-2.437 1.22-4.165 1.269-1.726 3.303-2.793 2.083-1.117 4.573-1.676a26.2 26.2 0 0 1 5.082-.71v-2.642q0-1.32-.356-2.387-.305-1.066-1.118-1.676-.762-.609-2.185-.559-.965.051-1.88.407a4.5 4.5 0 0 0-1.575 1.015q.405.458.508 1.016.101.508.102.914 0 1.017-.813 2.133-.815 1.067-2.592 1.016-1.525-.051-2.338-1.066t-.813-2.387q0-2.032 1.423-3.505 1.474-1.523 3.913-2.336 2.439-.863 5.387-.863 4.472 0 6.911 2.336 2.49 2.286 2.49 7.364v2.946q0 1.219-.051 2.438v2.945q0 .71-.051 2.032a54 54 0 0 1-.152 2.438 16 16 0 0 1 1.829-.102q.964-.05 1.474-.05v3.86zm-.559-11.681q-1.423.152-2.693.508-1.272.356-2.236.965a5.1 5.1 0 0 0-1.474 1.473 3.73 3.73 0 0 0-.508 1.93q.051 1.422.915 2.031.863.61 1.982.61 1.167 0 2.185-.508a7 7 0 0 0 1.829-1.32v-5.689m16.638 12.392q-2.338 0-3.862-1.27-1.525-1.269-1.525-3.3 0-1.676.966-2.54.966-.915 2.541-.914 1.626 0 2.286.863.712.864.712 1.88 0 .66-.153 1.015-.151.305-.355.559.152.152.508.152 1.372 0 2.388-2.285 1.017-2.286 1.677-6.552.662-4.266 1.016-10.26l-4.827.407v-3.86h24.951v3.302q-1.422 0-2.084.558-.609.559-.813 1.575a16.4 16.4 0 0 0-.152 2.387v9.395q0 .71-.051 2.032a52 52 0 0 1-.152 2.438l3.303-.153v3.86h-13.365v-3.301q1.423 0 2.033-.559.66-.558.813-1.574.203-1.067.203-2.387V26.97q0-.71.051-1.879.051-1.219.152-2.286h-3.811q-1.219 0-1.728.407-.507.406-.61 1.676-.304 5.078-1.118 8.837-.762 3.758-2.032 6.247-1.219 2.489-2.999 3.707-1.727 1.22-3.963 1.22"/><path fill="#fff" d="M56.472.228v3.164h-5.737v11.339h-3.94V.227zM72.124 7.46q0 1.677-.407 3.056-.397 1.369-1.25 2.36-.854.993-2.194 1.528-1.34.525-3.206.526-1.826 0-3.166-.526-1.33-.536-2.193-1.518-.864-.99-1.28-2.37-.418-1.38-.418-3.075 0-2.262.745-3.929A5.56 5.56 0 0 1 61.077.923Q62.646 0 65.087 0q2.48 0 4.03.923a5.46 5.46 0 0 1 2.282 2.598q.725 1.677.725 3.938m-9.985 0q0 1.31.298 2.252t.943 1.448 1.687.506q1.082 0 1.717-.505.645-.506.923-1.449.288-.942.288-2.252 0-1.964-.655-3.104-.656-1.14-2.253-1.141-1.062 0-1.717.516-.645.516-.943 1.468-.288.953-.288 2.261m19.066-4.225q-.694 0-1.24.297a2.6 2.6 0 0 0-.933.844q-.387.555-.596 1.358a7.5 7.5 0 0 0-.198 1.806q0 1.369.347 2.301.348.932 1.052 1.409.715.476 1.787.476.972 0 1.866-.268a19 19 0 0 0 1.816-.645v3.313a9 9 0 0 1-1.975.615q-1.002.189-2.134.189-2.362 0-3.87-.933a5.6 5.6 0 0 1-2.214-2.608q-.705-1.666-.705-3.869 0-1.647.457-3.016a6.8 6.8 0 0 1 1.36-2.37A5.9 5.9 0 0 1 78.228.575Q79.548.02 81.245.02q1.053 0 2.213.248a9.7 9.7 0 0 1 2.283.774l-1.2 3.084a13 13 0 0 0-1.608-.634 5.7 5.7 0 0 0-1.728-.258M94.347 14.73h-3.92V3.432h-3.543V.228H97.88v3.204h-3.534zM99.954.227h3.652v6.636q0 .447-.009.943-.01.485-.03.962-.02.476-.049.902-.031.427-.07.754h.079L109.502.228h4.496v14.503h-3.663V8.45q0-.405.01-.922.02-.516.04-1.062l.06-1.05q.04-.507.079-.884h-.089L104.46 14.73h-4.505zm29.627 14.503h-3.941V8.817h-4.555v5.913h-3.94V.227h3.94v5.376h4.555V.228h3.941zM132.727.227h3.653v6.636q0 .447-.01.943-.011.485-.031.962-.02.476-.049.902t-.07.754h.08L142.275.228h4.496v14.503h-3.662V8.45q0-.405.009-.922l.04-1.062.06-1.05q.04-.507.079-.884h-.089l-5.975 10.197h-4.506zm32.148 11.289v7.727h-3.822V14.73h-11.135V.228h3.94v11.289h4.03V.228h3.94v11.289zm10.838 3.214-.714-2.719h-4.715l-.735 2.718h-4.307L169.976.17h5.231L180 14.73zm-1.528-5.932-.626-2.381q-.1-.387-.288-1.101-.188-.724-.377-1.488-.179-.774-.278-1.27-.09.495-.258 1.23-.159.724-.337 1.439-.17.713-.298 1.19l-.625 2.38z"/></svg>