<svg viewBox="0 0 41.0079 4.0079" xmlns="http://www.w3.org/2000/svg" xmlns:xlink="http://www.w3.org/1999/xlink" width="41.007874" height="4.007904" fill="none" customFrame="#000000">
	<path id="Выделение" d="M1.00391 3.00399L2.40549 1.92131C3.47864 1.09233 4.98265 1.11645 6.02866 1.97941L6.05845 2.00399C7.11413 2.87492 8.63914 2.87492 9.69481 2.00399C10.7505 1.13306 12.2755 1.13306 13.3312 2.00399C14.3869 2.87492 15.9119 2.87492 16.9675 2.00399C18.0232 1.13306 19.5482 1.13306 20.6039 2.00399C21.6596 2.87492 23.1846 2.87492 24.2403 2.00399C25.2959 1.13306 26.821 1.13306 27.8766 2.00399C28.9323 2.87492 30.4573 2.87492 31.513 2.00399C32.5687 1.13306 34.0937 1.13306 35.1494 2.00399L35.1503 2.00474C36.2057 2.87544 37.73 2.87618 38.7863 2.00652L40.0039 1.00399" stroke="rgb(46.9625,111.987,216.75)" stroke-linecap="round" stroke-width="2" />
</svg>
