<svg xmlns="http://www.w3.org/2000/svg" width="160" height="40" fill="none"><path fill="#2F70D9" d="M21.23 17.248q0-2.398-.858-3.575-.858-1.22-2.168-1.656a6.8 6.8 0 0 0-2.485-.392l-2.936.043q-.948 0-1.626.262-.678.218-1.039 1.046-.36.785-.361 2.484v6.103l2.71-.088q4.427-.13 7.137.567 2.755.697 4.2 2.005 1.492 1.264 1.988 2.92a11.1 11.1 0 0 1 .542 3.487q0 2.877-1.445 4.882-1.401 1.962-3.885 2.964t-5.646 1.003H0v-2.877q1.04-.044 1.716-.262.723-.218 1.085-1.002.406-.785.406-2.528V15.94q0-1.177.045-2.267.09-1.089.136-1.656-.723.043-1.807.087-1.084 0-1.581.044V8.792h23.94l.226 8.455zM9.757 32.371q0 1.178-.045 2.223-.046 1.047-.136 1.613h2.981q.723-.044 1.4-.044 2.757-.13 4.02-1.743 1.266-1.613 1.266-4.141 0-2.266-.859-3.487-.858-1.22-2.213-1.7a8 8 0 0 0-2.755-.48h-1.943a11.5 11.5 0 0 0-1.716.044zm32.258 6.93q-.09-.609-.136-1.002 0-.436-.045-1.002-1.536 1.481-3.253 2.092-1.716.61-3.478.61-2.89 0-4.517-1.656-1.626-1.657-1.626-4.141 0-2.092 1.084-3.574 1.13-1.482 2.936-2.398a16.3 16.3 0 0 1 4.066-1.438 24 24 0 0 1 4.517-.61v-2.267q0-1.133-.316-2.048-.271-.915-.994-1.439-.678-.522-1.943-.48a5.5 5.5 0 0 0-1.67.35 4 4 0 0 0-1.401.871q.36.393.452.872.09.435.09.785 0 .87-.723 1.83-.723.915-2.303.872-1.355-.043-2.078-.915t-.723-2.049q0-1.743 1.265-3.007 1.31-1.308 3.478-2.005 2.168-.742 4.788-.741 3.975 0 6.143 2.005 2.214 1.96 2.214 6.32v2.528q0 1.046-.046 2.092v2.528q0 .61-.045 1.744-.045 1.089-.135 2.092a14 14 0 0 1 1.626-.087q.858-.044 1.31-.044v3.313zm-.497-10.024q-1.266.13-2.394.435a7.6 7.6 0 0 0-1.988.829q-.813.522-1.31 1.264a3.1 3.1 0 0 0-.452 1.656q.046 1.22.813 1.743.769.524 1.762.523 1.039 0 1.943-.435a6.2 6.2 0 0 0 1.626-1.134v-4.882m23.371-8.936q-1.22 0-1.806.48-.543.48-.723 1.35-.136.873-.136 2.05v8.063q0 .61-.045 1.744-.045 1.089-.135 2.092a13 13 0 0 1 1.58-.087q.905-.044 1.356-.044v3.313H53.145v-2.834q1.265 0 1.807-.479.541-.48.678-1.351.18-.915.18-2.049v-8.064q0-.609.045-1.743.046-1.134.136-2.092-.723.043-1.581.087t-1.355.044v-3.313h11.834zm6.686.828 2.168 2.18-12.964 12.03-2.213-2.223zm7.95-.828q-1.22 0-1.807.48-.542.48-.723 1.35-.135.873-.135 2.05v8.063q0 .61-.046 1.744-.045 1.089-.135 2.092a13 13 0 0 1 1.58-.087q.904-.044 1.356-.044v3.313H67.78v-2.834q1.266 0 1.807-.479.541-.48.678-1.351.18-.915.18-2.049v-8.064q0-.609.046-1.743.045-1.134.135-2.092-.723.043-1.58.087-.86.044-1.356.044v-3.313h11.835zm2.629 18.96V36.47q1.264 0 1.807-.479.587-.48.722-1.351.18-.915.181-2.049v-8.064q0-.609.045-1.743t.136-2.092q-.724.043-1.581.087-.859.044-1.355.044v-3.313h11.835v2.833q-1.266 0-1.852.48-.543.48-.678 1.35-.135.873-.135 2.05v2.048h2.168l3.252-3.618q.586-.61.949-1.046.406-.435.813-.784h-2.394v-3.313h10.163v2.79q-1.58.174-2.801.74a8.8 8.8 0 0 0-2.123 1.265q-.858.74-1.49 1.438l-2.891 3.095q.678.348 1.31.959.678.566 1.626 1.787l3.026 3.835q.272.306.678.828.451.524.994 1.047.541.48 1.174.828t1.31.348v2.834h-5.194a3.7 3.7 0 0 1-2.53-.96q-1.085-1.002-2.484-2.833a434 434 0 0 1-1.717-2.222q-.86-1.221-1.626-2.267a43 43 0 0 0-1.175-1.7l-1.038.044v2.92q0 .61-.045 1.744-.046 1.089-.136 2.092a13 13 0 0 1 1.58-.087q.86-.044 1.356-.044v3.313zm39.924 0a30 30 0 0 1-.136-1.002q0-.436-.045-1.002-1.538 1.481-3.252 2.092a10.3 10.3 0 0 1-3.478.61q-2.892 0-4.517-1.656-1.627-1.657-1.627-4.141 0-2.092 1.084-3.574 1.129-1.482 2.937-2.398a16.3 16.3 0 0 1 4.065-1.438 24 24 0 0 1 4.517-.61v-2.267q0-1.133-.316-2.048-.271-.915-.994-1.439-.678-.522-1.942-.48a5.5 5.5 0 0 0-1.672.35 4 4 0 0 0-1.4.871q.36.393.452.872.09.435.09.785 0 .87-.723 1.83-.723.915-2.303.872-1.356-.043-2.078-.915-.724-.872-.723-2.049 0-1.743 1.265-3.007 1.31-1.308 3.478-2.005 2.168-.742 4.788-.741 3.975 0 6.143 2.005 2.214 1.96 2.214 6.32v2.528q0 1.046-.046 2.092v2.528q0 .61-.045 1.744-.046 1.089-.135 2.092a14 14 0 0 1 1.626-.087q.858-.044 1.31-.044v3.313zm-.497-10.024q-1.266.13-2.394.435a7.6 7.6 0 0 0-1.988.829q-.813.522-1.31 1.264a3.1 3.1 0 0 0-.451 1.656q.044 1.22.813 1.743.767.524 1.761.523a4.4 4.4 0 0 0 1.943-.435 6.3 6.3 0 0 0 1.626-1.134v-4.882m14.789 10.635q-2.078 0-3.433-1.09-1.356-1.089-1.356-2.833 0-1.438.859-2.18.858-.783 2.258-.784 1.446 0 2.033.741.632.741.632 1.613 0 .566-.135.871a2.7 2.7 0 0 1-.316.48q.136.13.451.13 1.22 0 2.123-1.96.904-1.962 1.491-5.624.588-3.66.903-8.804l-4.291.349v-3.313h22.179v2.833q-1.264 0-1.852.48-.541.48-.723 1.35-.135.873-.135 2.05v8.063q0 .61-.046 1.744a42 42 0 0 1-.135 2.092l2.936-.131v3.313h-11.88v-2.834q1.266 0 1.807-.479.587-.48.723-1.351.18-.915.18-2.049v-8.064q0-.61.046-1.612.045-1.046.135-1.962h-3.388q-1.083 0-1.535.35-.451.348-.543 1.437-.27 4.359-.993 7.585-.678 3.225-1.807 5.36-1.084 2.137-2.665 3.183-1.536 1.046-3.523 1.046"/><path fill="#686868" d="M50.197.196V2.91h-5.099v9.731h-3.502V.196zM64.11 6.402q0 1.44-.361 2.622a5.3 5.3 0 0 1-1.112 2.026q-.759.852-1.95 1.311-1.191.45-2.85.451-1.623 0-2.814-.451-1.182-.459-1.95-1.302a5.4 5.4 0 0 1-1.138-2.035q-.37-1.184-.37-2.64 0-1.94.662-3.37A4.83 4.83 0 0 1 54.29.792Q55.685 0 57.855 0q2.206 0 3.582.792a4.75 4.75 0 0 1 2.03 2.23q.642 1.44.643 3.38m-8.875 0q0 1.124.265 1.932.264.81.838 1.243.573.434 1.5.434.961 0 1.526-.434.573-.434.82-1.243.255-.809.256-1.932 0-1.686-.582-2.665t-2.003-.979q-.944 0-1.526.443-.574.442-.838 1.26-.256.818-.256 1.94m16.948-3.627q-.618 0-1.103.256a2.3 2.3 0 0 0-.83.723q-.343.477-.529 1.167-.176.68-.176 1.549 0 1.175.309 1.975.308.801.935 1.209.635.409 1.588.409.864 0 1.658-.23a17 17 0 0 0 1.615-.554v2.844q-.856.366-1.756.528-.89.16-1.897.161-2.1 0-3.44-.8a4.87 4.87 0 0 1-1.968-2.239q-.626-1.43-.626-3.32 0-1.413.406-2.588a5.8 5.8 0 0 1 1.208-2.035A5.3 5.3 0 0 1 69.536.494q1.173-.477 2.682-.477.936 0 1.967.213 1.04.204 2.03.664L75.147 3.54q-.705-.323-1.43-.544a5.2 5.2 0 0 0-1.534-.222m11.68 9.867H80.38V2.946h-3.15V.196h9.775v2.75h-3.14zM88.849.196h3.246V5.89q0 .383-.008.809a40 40 0 0 1-.07 1.6q-.028.366-.063.647h.07L97.336.196h3.997v12.446h-3.256V7.253q0-.349.009-.791l.035-.911.053-.903q.036-.434.07-.758h-.079l-5.31 8.752h-4.006zm26.335 12.446h-3.503V7.568h-4.049v5.074h-3.502V.196h3.502V4.81h4.049V.196h3.503zM117.98.196h3.247V5.89q0 .383-.009.809-.01.417-.028.826a27 27 0 0 1-.043.774q-.027.366-.062.647h.07l5.311-8.751h3.997v12.446h-3.255V7.253q0-.349.008-.791l.035-.911.054-.903q.035-.434.07-.758h-.079l-5.311 8.752h-4.005zm28.575 9.688v6.631h-3.396v-3.873h-9.899V.196h3.503v9.688h3.582V.196h3.502v9.688zm9.634 2.758-.635-2.333h-4.191l-.653 2.333h-3.828L151.09.145h4.65L160 12.642zm-1.358-5.09-.556-2.044q-.089-.332-.256-.945-.168-.621-.336-1.277a38 38 0 0 1-.246-1.09q-.08.426-.23 1.056-.141.621-.3 1.234-.15.614-.264 1.022l-.556 2.043z"/></svg>