<svg xmlns="http://www.w3.org/2000/svg" width="285" height="409" fill="none"><path fill="#D86713" d="M23.473 377.952c0 4.62-3.682 8.329-8.193 8.329s-8.193-3.743-8.193-8.329c0-4.585 3.682-8.328 8.193-8.328s8.193 3.743 8.193 8.328"/><path fill="#F1A34F" d="M26.69 377.952c0 4.62-3.681 8.329-8.193 8.329-4.544 0-8.193-3.743-8.193-8.329 0-4.585 3.682-8.328 8.193-8.328 4.512 0 8.194 3.743 8.194 8.328"/><path fill="#D86713" d="M69.946 408.535c4.525 0 8.193-3.729 8.193-8.328 0-4.6-3.668-8.329-8.193-8.329s-8.193 3.729-8.193 8.329c0 4.599 3.668 8.328 8.193 8.328"/><path fill="#F1A34F" d="M73.163 408.535c4.525 0 8.194-3.728 8.194-8.328s-3.669-8.329-8.194-8.329-8.193 3.729-8.193 8.329 3.668 8.328 8.193 8.328"/><path fill="#D86713" d="m8.812 368.916 9.088 8.598a10.9 10.9 0 0 0 3.152 2.057l61.134 25.862 11.377-8.295zM137.548 275.718l-2.919-2.057c13.401-19.726 39.308-58.57 41.464-64.47 1.36-3.709 1.36-6.812.033-9.206-2.123-3.844-7.098-4.889-7.131-4.889l-.2-.034-13.566-4.248c-15.558-6.305-22.192 6.103-22.49 6.643l-.1.168-36.29 55.703-2.951-1.989 36.256-55.67c.331-.64 2.388-4.181 6.402-6.946 4.013-2.731 10.78-5.192 20.4-1.315l13.301 4.181c.896.203 6.668 1.619 9.421 6.609 1.891 3.372 1.957 7.486.232 12.24-2.819 7.789-40.269 62.953-41.862 65.28"/><path fill="#D86713" d="m133.468 261.724 30.053 20.973s7.928 8.126-1.161 24.379c-7.994 14.296-50.785 95.356-50.785 95.356s-8.923 16.859-43.62-4.249z"/><path fill="#F1A34F" d="m141.894 292.813-48.563 90.501a22.8 22.8 0 0 1-8.06 8.631 22.48 22.48 0 0 1-20.832 1.619l-30.55-13.049-.763-.337-19.14-8.194c-1.924-.809-3.682-1.888-5.24-3.102-.366-.304-.73-.573-1.062-.91-5.673-5.092-8.459-12.78-7.497-20.333a23.5 23.5 0 0 1 3.284-9.34l51.846-84.263c5.54-8.969 16.354-13.015 26.272-9.778l5.606 1.821 1.327.438 1.127.371 18.742 6.069 2.289.742 18.078 5.867c2.82.91 5.341 2.327 7.497 4.114.132.101.265.236.431.371l.862.775c7.265 7.014 9.52 18.411 4.346 27.987"/><path fill="#D86713" d="M85.304 391.979a22.48 22.48 0 0 1-20.832 1.619l-30.55-13.049-.763-.338-19.14-8.193c-1.924-.81-3.682-1.888-5.24-3.102-.366-.304-.73-.574-1.062-.911-5.672-5.091-9.852-16.556-6.336-25.221 0 0 64.817 27.177 77.388 35.168 6.535 4.114 6.535 9.981 6.535 14.027" opacity=".4"/><path fill="#D86713" d="M89.716 246.922c-.166.033-17.979 2.63-23.087 9.508-5.241 7.081-56.79 93.671-57.287 94.514-.033.067-4.146 8.834.332 18.612l-.862-.64c-.365-.304-.73-.574-1.062-.911-3.914-9.846.332-17.399.53-17.702 2.124-3.574 52.113-87.5 57.387-94.648 4.61-6.238 17.514-8.868 21.627-9.543l1.327.439zM110.746 253.733c-2.62.505-12.903 3.135-19.206 13.487-7.397 12.139-54.699 103.145-55.163 104.056l-.034.067-.033.068c-.033.033-3.25 4.653-1.592 9.475l-.763-.338-.763-.337c-1.426-4.99 1.659-9.036 2.123-9.61 1.46-2.798 47.833-92.018 55.164-104.055 5.44-8.902 13.699-12.341 17.978-13.555zM137.615 264.894c-.067 0-3.715.404-7.464 2.225-3.748 1.821-8.392 5.125-12.008 11.06-7.397 12.139-52.974 103.482-53.438 104.393l-.033.067-.067.068c-.033.033-2.72 5.664-1.061 10.486l-1.924-.809c-1.062-4.181 1.492-9.846 1.99-10.453 1.46-2.933 46.108-92.389 53.472-104.427 6.899-11.329 17.149-13.419 19.272-13.757.133.101.266.236.431.371z"/><path fill="#233862" d="M137.899 377.413s-6.535 6.137-5.242 10.52c1.261 4.35 7.165 7.283 7.962 12.611s3.98 8.227 6.833 8.227h13.633s2.123-3.742-2.985-4.889c-5.076-1.146-6.999-7.384-6.701-13.218.332-5.833-.464-13.588-.464-13.588l-10.814-2.597zM256.087 408.771h-36.223c-.298-.067-.564-.134-.696-.202-2.422-1.214-1.659-10.621-1.36-13.521.066-.54.099-.843.099-.843s12.738-10.352 14.463-2.428c.066.236.132.506.199.742 2.189 7.418 12.074 10.79 17.779 11.7 4.313.675 5.44 3.271 5.739 4.552"/><path fill="#2B478B" d="M248.789 196.748s-1.924 24.514-4.212 53.95c-3.085 39.991-6.8 89.152-7.165 98.459-.631 16.151-3.185 42.013-3.185 42.013s-6.037 6.137-18.111 3.541c0 0-10.781-36.922-13.833-75.969-.033-.64-.099-1.281-.132-1.921-2.853-39.755-7.298-123.478-7.298-123.478z"/><path fill="#233862" d="M248.789 196.748s-1.924 24.514-4.212 53.95l-42.294 68.044c-.033-.64-.099-1.281-.132-1.921-2.853-39.755-7.298-123.478-7.298-123.478z"/><path fill="#2B478B" d="M239.966 199.648s-34.83 88.714-57.718 130.424-30.053 53.343-30.053 53.343-13.102-5.328-14.297-8.969c0 0 8.758-80.487 24.083-100.111 8.657-11.093 18.841-44.374 19.305-56.007.465-11.633 3.085-34.662 3.085-34.662z"/><path fill="#FFB27D" d="m275.193 175.168 1.991 4.047s10.117 1.45 7.331 12.172c0 0-1.493 4.417-4.28 3.001-2.786-1.382-1.426-1.281-5.407-3.169-4.013-1.889-6.302-5.497-5.406-8.801l-.631-3.507zM222.12 62.717c1.559-9.307 1.592-14.803 1.592-14.803l-17.68-14.465c.663 19.894-11.875 29.47-11.875 29.47s23.551 11.768 37.151 7.418c0-.034-3.35-4.383-9.188-7.62"/><path fill="#FFB27D" d="M227.891 47.577s-22.489 3.81-24.579-10.452c-2.123-14.263-6.435-23.367 7.828-26.402s17.846 1.99 19.704 6.575c1.824 4.552 2.819 28.93-2.953 30.28"/><path fill="#233862" d="M203.444 38.102s.465-19.118 20.931-22.187c14.032-2.09 5.54-14.027 3.915-15.915 0 0-10.715 2.09-21.694 4.518-23.021 5.16-5.573 30.718-3.152 33.584"/><path fill="#4A75CB" d="M272.838 180.766c3.019-3.136 5.241-7.216 5.241-7.216s-25.541-32.235-27.598-35.607c-2.09-3.338-17.581-56.984-17.581-56.984l-39.208-8.06s32.74 68.652 38.147 77.014c8.956 13.825 35.758 34.427 35.758 34.427s2.886-1.113 5.241-3.574"/><path fill="#739AF0" d="M250.315 198.772a2.2 2.2 0 0 1-1.426.539c-5.109-.067-20.002 2.799-32.607 1.484-10.615-1.046-20.036-4.249-30.153-8.835-1.327-.607-4.445-2.292-4.345-3.81.033-1.652.199-4.08.398-7.148.73-10.588 1.957-28.83.73-49.87a196 196 0 0 1-.332-11.633c-.1-28.492 5.374-53.714 16.519-62.21.962-.709 6.9 2.36 12.306 5.057 4.976 2.495 8.459 2.428 13.136 1.484l6.203 4.552c5.739 5.394 12.008 12.745 14.728 23.906 2.322 9.475 3.682 26.604 4.445 44.34.332 8.025.63 16.151.697 23.839v.27c.066.775.066 1.585.066 2.36.232 19.759-.033 35.405-.365 35.675"/><path fill="#4A75CB" d="M182.182 181.035c.73-10.587 1.957-28.829.73-49.869a196 196 0 0 1-.332-11.633c4.644-11.465 8.458-19.793 8.458-19.793h11.743c-.033.034 8.591 59.749-20.599 81.295"/><path fill="#FFB27D" d="m159.36 184.778-2.222 3.912s4.378 9.407-6.004 12.914c0 0-4.445 1.146-4.843-1.989-.365-3.136.265-1.889-.365-6.339-.63-4.418 1.061-8.363 4.279-9.442l2.521-2.461z"/><path fill="#739AF0" d="M153.456 185.824c4.212.843 8.79.505 8.79.505s12.539-39.383 14.164-42.991 37.251-46.194 37.251-46.194L198.8 59.379s-38.544 65.448-42.458 74.653c-6.469 15.207-8.724 49.263-8.724 49.263s2.521 1.888 5.838 2.529"/></svg>