<svg viewBox="0 0 285 408.809" xmlns="http://www.w3.org/2000/svg" xmlns:xlink="http://www.w3.org/1999/xlink" width="285.000000" height="408.808838" fill="none" customFrame="#000000">
	<g id="Мальчик">
		<g id="Group">
			<g id="Group">
				<path id="Vector" d="M23.4731 377.952C23.4731 382.572 19.7911 386.281 15.2799 386.281C10.7686 386.281 7.08662 382.538 7.08662 377.952C7.08662 373.367 10.7686 369.624 15.2799 369.624C19.7911 369.624 23.4731 373.367 23.4731 377.952Z" fill="rgb(216,103,19)" fill-rule="nonzero" />
				<path id="Vector" d="M26.6907 377.952C26.6907 382.572 23.0087 386.281 18.4975 386.281C13.953 386.281 10.3042 382.538 10.3042 377.952C10.3042 373.367 13.9862 369.624 18.4975 369.624C23.0087 369.624 26.6907 373.367 26.6907 377.952Z" fill="rgb(241,163,79)" fill-rule="nonzero" />
			</g>
			<g id="Group">
				<path id="Vector" d="M69.9458 408.535C74.4708 408.535 78.139 404.806 78.139 400.207C78.139 395.607 74.4708 391.878 69.9458 391.878C65.4208 391.878 61.7525 395.607 61.7525 400.207C61.7525 404.806 65.4208 408.535 69.9458 408.535Z" fill="rgb(216,103,19)" fill-rule="evenodd" />
				<path id="Vector" d="M73.1633 408.535C77.6883 408.535 81.3566 404.807 81.3566 400.207C81.3566 395.607 77.6883 391.878 73.1633 391.878C68.6383 391.878 64.9701 395.607 64.9701 400.207C64.9701 404.807 68.6383 408.535 73.1633 408.535Z" fill="rgb(241,163,79)" fill-rule="evenodd" />
			</g>
			<path id="Vector" d="M8.81151 368.916L17.9004 377.514C18.8292 378.39 19.8906 379.065 21.0516 379.571L82.1858 405.433L93.5635 397.138L8.81151 368.916Z" fill="rgb(216,103,19)" fill-rule="nonzero" />
			<g id="Group">
				<path id="Vector" d="M137.548 275.717L134.629 273.66C148.03 253.935 173.937 215.091 176.093 209.19C177.453 205.481 177.453 202.379 176.126 199.985C174.003 196.141 169.028 195.096 168.995 195.096L168.795 195.062L155.229 190.814C139.671 184.508 133.037 196.917 132.739 197.456L132.639 197.625L96.3499 253.328L93.3977 251.339L129.654 195.669C129.985 195.029 132.042 191.488 136.056 188.723C140.069 185.992 146.836 183.53 156.456 187.408L169.757 191.589C170.653 191.792 176.425 193.208 179.178 198.198C181.069 201.57 181.135 205.684 179.41 210.438C176.591 218.227 139.141 273.391 137.548 275.717Z" fill="rgb(216,103,19)" fill-rule="nonzero" />
			</g>
			<path id="Vector" d="M133.468 261.724L163.521 282.697C163.521 282.697 171.449 290.823 162.36 307.076C154.366 321.372 111.575 402.432 111.575 402.432C111.575 402.432 102.652 419.291 67.9555 398.183L133.468 261.724Z" fill="rgb(216,103,19)" fill-rule="nonzero" />
			<path id="Vector" d="M141.894 292.812L93.3313 383.313C91.3743 386.989 88.5547 389.888 85.2708 391.945C79.2005 395.755 71.4716 396.565 64.4393 393.564L33.8888 380.515L33.1259 380.177L13.9862 371.984C12.0623 371.175 10.3042 370.096 8.74517 368.882C8.38028 368.578 8.01542 368.308 7.68371 367.971C2.01146 362.88 -0.774942 355.192 0.187018 347.639C0.585071 344.436 1.67972 341.232 3.47096 338.299L55.3173 254.036C60.8568 245.067 71.6707 241.021 81.5888 244.258L87.1947 246.078L88.5215 246.517L89.6493 246.888L108.391 252.957L110.68 253.699L128.758 259.566C131.578 260.476 134.099 261.892 136.255 263.679C136.387 263.781 136.52 263.916 136.686 264.05L137.548 264.826C144.813 271.839 147.068 283.236 141.894 292.812Z" fill="rgb(241,163,79)" fill-rule="nonzero" />
			<path id="Vector" d="M85.304 391.979C79.2337 395.789 71.5048 396.599 64.4725 393.598L33.922 380.549L33.1591 380.211L14.0194 372.018C12.0955 371.208 10.3374 370.13 8.77835 368.916C8.41347 368.612 8.0486 368.342 7.71689 368.005C2.04464 362.914 -2.1349 351.449 1.38123 342.784C1.38123 342.784 66.1975 369.961 78.7693 377.952C85.304 382.066 85.304 387.933 85.304 391.979Z" opacity="0.400000006" fill="rgb(216,103,19)" fill-rule="nonzero" />
			<g id="Group">
				<g id="Group">
					<path id="Vector" d="M89.7157 246.921C89.5499 246.955 71.737 249.551 66.6287 256.43C61.3876 263.511 9.83984 350.1 9.34228 350.943C9.30911 351.011 5.1959 359.778 9.67399 369.556L8.81151 368.915C8.44663 368.612 8.08176 368.342 7.75005 368.005C3.83587 358.159 8.08175 350.606 8.28078 350.303C10.4037 346.729 60.3925 262.803 65.6667 255.654C70.2775 249.417 83.181 246.786 87.2942 246.112L88.6211 246.55L89.7157 246.921Z" fill="rgb(216,103,19)" fill-rule="nonzero" />
				</g>
				<g id="Group">
					<path id="Vector" d="M110.746 253.733C108.126 254.238 97.8426 256.868 91.5401 267.22C84.143 279.359 36.8411 370.365 36.3767 371.276L36.3435 371.343L36.3103 371.411C36.2771 371.444 33.0596 376.064 34.7181 380.886L33.9552 380.548L33.1922 380.211C31.7659 375.221 34.8508 371.175 35.3152 370.601C36.7747 367.803 83.1478 278.583 90.4786 266.546C95.9187 257.644 104.178 254.205 108.457 252.991L110.746 253.733Z" fill="rgb(216,103,19)" fill-rule="nonzero" />
				</g>
				<g id="Group">
					<path id="Vector" d="M137.615 264.894C137.548 264.894 133.9 265.298 130.151 267.119C126.403 268.94 121.759 272.244 118.143 278.179C110.746 290.317 65.1691 381.661 64.7047 382.572L64.6716 382.639L64.6052 382.706C64.572 382.74 61.8852 388.371 63.5437 393.193L61.6198 392.384C60.5583 388.203 63.1125 382.538 63.6101 381.931C65.0696 378.997 109.718 289.542 117.082 277.504C123.981 266.175 134.231 264.084 136.354 263.747C136.487 263.848 136.62 263.983 136.785 264.118L137.615 264.894Z" fill="rgb(216,103,19)" fill-rule="nonzero" />
				</g>
			</g>
		</g>
		<g id="man_7_">
			<g id="Group">
				<path id="Vector" d="M137.899 377.413C137.899 377.413 131.364 383.55 132.657 387.933C133.918 392.283 139.822 395.216 140.619 400.544C141.415 405.872 144.599 408.771 147.452 408.771C150.304 408.771 161.085 408.771 161.085 408.771C161.085 408.771 163.208 405.029 158.1 403.882C153.024 402.736 151.101 396.498 151.399 390.664C151.731 384.831 150.935 377.076 150.935 377.076L140.121 374.479L137.899 377.413Z" fill="rgb(35,56,98)" fill-rule="nonzero" />
				<path id="Vector" d="M256.087 408.771L219.864 408.771C219.566 408.704 219.3 408.637 219.168 408.569C216.746 407.355 217.509 397.948 217.808 395.048C217.874 394.508 217.907 394.205 217.907 394.205C217.907 394.205 230.645 383.853 232.37 391.777C232.436 392.013 232.502 392.283 232.569 392.519C234.758 399.937 244.643 403.309 250.348 404.219C254.661 404.894 255.788 407.49 256.087 408.771Z" fill="rgb(35,56,98)" fill-rule="nonzero" />
				<path id="Vector" d="M248.789 196.748C248.789 196.748 246.865 221.262 244.577 250.698C241.492 290.689 237.776 339.85 237.412 349.157C236.781 365.308 234.227 391.17 234.227 391.17C234.227 391.17 228.19 397.307 216.116 394.711C216.116 394.711 205.335 357.789 202.283 318.742C202.25 318.102 202.184 317.461 202.151 316.82C199.298 277.066 194.853 193.343 194.853 193.343L248.789 196.748Z" fill="rgb(43,71,139)" fill-rule="nonzero" />
				<path id="Vector" d="M248.789 196.748C248.789 196.748 246.865 221.262 244.577 250.698L202.283 318.742C202.25 318.102 202.184 317.461 202.151 316.82C199.298 277.066 194.853 193.343 194.853 193.343L248.789 196.748Z" fill="rgb(35,56,98)" fill-rule="nonzero" />
				<path id="Vector" d="M239.966 199.648C239.966 199.648 205.136 288.362 182.248 330.072C159.36 371.782 152.195 383.415 152.195 383.415C152.195 383.415 139.093 378.087 137.898 374.446C137.898 374.446 146.656 293.959 161.981 274.335C170.638 263.242 180.822 229.961 181.286 218.328C181.751 206.695 184.371 183.666 184.371 183.666L239.966 199.648Z" fill="rgb(43,71,139)" fill-rule="nonzero" />
			</g>
			<path id="Vector" d="M275.193 175.168L277.184 179.215C277.184 179.215 287.301 180.665 284.514 191.387C284.514 191.387 283.022 195.804 280.235 194.388C277.449 193.006 278.809 193.107 274.828 191.219C270.815 189.33 268.526 185.722 269.422 182.418L268.791 178.911L275.193 175.168Z" fill="rgb(255,178,125)" fill-rule="nonzero" />
			<path id="Vector" d="M222.12 62.7168C223.679 53.4104 223.712 47.9143 223.712 47.9143L206.032 33.449C206.695 53.343 194.157 62.9191 194.157 62.9191C194.157 62.9191 217.708 74.6869 231.308 70.3372C231.308 70.3035 227.958 65.9538 222.12 62.7168Z" fill="rgb(255,178,125)" fill-rule="nonzero" />
			<path id="Vector" d="M227.891 47.5773C227.891 47.5773 205.402 51.3875 203.312 37.1245C201.189 22.8615 196.877 13.7575 211.14 10.7228C225.404 7.6881 228.986 12.7122 230.844 17.2979C232.668 21.8499 233.663 46.2285 227.891 47.5773Z" fill="rgb(255,178,125)" fill-rule="nonzero" />
			<path id="Vector" d="M203.444 38.1021C203.444 38.1021 203.909 18.9836 224.375 15.9152C238.407 13.8247 229.915 1.88824 228.29 0C228.29 0 217.575 2.09054 206.596 4.51829C183.575 9.67724 201.023 35.236 203.444 38.1021Z" fill="rgb(35,56,98)" fill-rule="nonzero" />
			<path id="Vector" d="M272.838 180.766C275.857 177.63 278.079 173.55 278.079 173.55C278.079 173.55 252.538 141.315 250.481 137.943C248.391 134.605 232.9 80.9586 232.9 80.9586L193.692 72.8999C193.692 72.8999 226.432 141.551 231.839 149.913C240.795 163.738 267.597 184.34 267.597 184.34C267.597 184.34 270.483 183.227 272.838 180.766Z" fill="rgb(74,117,203)" fill-rule="nonzero" />
			<path id="Vector" d="M250.315 198.772C249.917 199.109 249.419 199.311 248.889 199.311C243.78 199.244 228.887 202.11 216.282 200.795C205.667 199.749 196.246 196.546 186.129 191.96C184.802 191.353 181.684 189.668 181.784 188.15C181.817 186.498 181.983 184.07 182.182 181.002C182.912 170.414 184.139 152.172 182.912 131.132C182.679 127.221 182.58 123.343 182.58 119.499C182.48 91.0068 187.954 65.7852 199.099 57.2881C200.061 56.58 205.999 59.6484 211.405 62.3459C216.381 64.8411 219.864 64.7737 224.541 63.8295L230.744 68.3815C236.483 73.7765 242.752 81.1272 245.472 92.2881C247.794 101.763 249.154 118.892 249.917 136.628C250.249 144.653 250.547 152.779 250.614 160.467L250.614 160.737C250.68 161.512 250.68 162.322 250.68 163.097C250.912 182.856 250.647 198.502 250.315 198.772Z" fill="rgb(115,154,240)" fill-rule="nonzero" />
			<path id="Vector" d="M182.182 181.035C182.912 170.448 184.139 152.206 182.912 131.166C182.679 127.254 182.58 123.377 182.58 119.533C187.224 108.068 191.038 99.7397 191.038 99.7397L202.781 99.7397C202.748 99.7735 211.372 159.489 182.182 181.035Z" fill="rgb(74,117,203)" fill-rule="nonzero" />
			<g id="Group">
				<path id="Vector" d="M159.36 184.778L157.138 188.69C157.138 188.69 161.516 198.097 151.134 201.604C151.134 201.604 146.689 202.75 146.291 199.615C145.926 196.479 146.556 197.726 145.926 193.275C145.296 188.858 146.987 184.913 150.205 183.834L152.726 181.373L159.36 184.778Z" fill="rgb(255,178,125)" fill-rule="nonzero" />
				<path id="Vector" d="M153.456 185.824C157.668 186.667 162.246 186.329 162.246 186.329C162.246 186.329 174.785 146.946 176.41 143.338C178.035 139.73 213.661 97.1436 213.661 97.1436L198.8 59.3787C198.8 59.3787 160.256 124.827 156.342 134.032C149.873 149.239 147.618 183.295 147.618 183.295C147.618 183.295 150.139 185.183 153.456 185.824Z" fill="rgb(115,154,240)" fill-rule="nonzero" />
			</g>
		</g>
	</g>
</svg>
