<svg viewBox="0 0 284.598 412.647" xmlns="http://www.w3.org/2000/svg" xmlns:xlink="http://www.w3.org/1999/xlink" width="284.598267" height="412.647461" fill="none" customFrame="#000000">
	<g id="Девочка">
		<path id="Vector" d="M37.4837 43.7768C37.4837 43.7768 25.3164 27.64 21.8801 20.2829L12.4127 0L0 3.53632L15.7438 29.3878L32.189 45.5246L37.4837 43.7768Z" fill="rgb(255,178,125)" fill-rule="nonzero" transform="matrix(-1,0,0,1,168.465,355.399)" />
		<path id="Vector" d="M75.2129 2.98962C72.3376 1.11986 68.9363 0.916648 66.5169 1.07924C67.1481 0.34759 68.3402 0.0630611 68.3402 0.0630611C66.8675 -0.180821 63.5365 1.52634 63.5365 1.52634C42.8485 -7.70052 39.6226 27.5811 40.0434 35.7918C40.4642 44.0024 33.1007 46.6851 22.3359 53.148C1.82333 65.4641 0 81.9667 0 81.9667C0.175321 82.0887 0.315544 82.2106 0.490866 82.3326C1.50773 80.3409 3.61164 76.5607 5.36485 75.9916C5.29472 76.1542 3.26096 81.1538 2.52461 84.0397C8.59073 89.3645 19.9165 101.193 27.806 109.607C27.7709 107.981 27.8411 105.623 28.332 104.404L29.3137 111.233C33.5214 115.744 36.4668 118.915 36.4668 118.915C35.9409 112.289 62.3092 77.333 76.0895 66.8461C79.4557 61.1148 80.6128 51.0344 80.7179 50.2214C80.1569 58.2289 78.9647 62.7407 77.9128 65.2608C89.5892 52.7822 82.7868 7.94856 75.2129 2.98962Z" fill="rgb(22,53,96)" fill-rule="nonzero" transform="matrix(-1,0,0,1,284.598,0)" />
		<path id="Vector" d="M19.4618 23.6159C19.532 23.6565 12.8347 27.6806 7.78541 26.0954C3.05173 24.5914 -0.0689705 17.4375 0.00115807 17.4375C1.99982 16.9904 2.59593 13.7793 2.56087 0L3.47249 0.203235L18.7605 3.69887C18.7605 3.69887 18.4099 9.26752 18.4099 14.511C18.3748 18.9821 18.6203 23.1688 19.4618 23.6159Z" fill="rgb(255,178,125)" fill-rule="nonzero" transform="matrix(-1,0,0,1,228.777,43.6772)" />
		<path id="Vector" d="M0 4.28536C0 4.28536 7.53882 -5.0228 17.0062 3.7976C17.0412 3.7976 11.5011 2.70013 0 4.28536Z" fill="rgb(227,121,112)" fill-rule="nonzero" transform="matrix(-1,0,0,1,226.602,4.47607)" />
		<path id="Vector" d="M15.2881 3.53629C15.2881 3.53629 14.9374 9.10492 14.9374 14.3484C6.38173 14.0639 1.85841 5.04023 0 0L15.2881 3.53629Z" fill="rgb(214,141,93)" fill-rule="nonzero" transform="matrix(-1,0,0,1,225.305,43.8804)" />
		<path id="Vector" d="M5.70718 36.4387C5.70718 36.4387 1.2189 28.228 0.131909 21.1961C-0.639505 16.1965 1.56954 -2.4198 17.664 0.262899C17.664 0.262899 22.3276 0.791305 26.7457 4.2463C30.2522 6.96965 35.3014 12.9041 29.6561 29.1223L28.1833 34.6096L5.70718 36.4387Z" fill="rgb(22,53,96)" fill-rule="nonzero" transform="matrix(-1,0,0,1,232.625,5.53149)" />
		<path id="Vector" d="M86.7491 203.276L78.6492 203.56L69.8831 203.885C69.8831 203.885 49.616 177.749 38.2552 135.802C37.9747 134.826 37.6942 133.851 37.4137 132.834C31.2073 111.82 18.3036 85.3993 11.5011 61.5396C10.4141 57.7187 9.43229 54.1418 8.59075 50.7681C8.31023 49.6706 8.02979 48.6138 7.78434 47.557C2.77015 27.3961 1.33244 14.1452 0 0L49.055 0.447107C49.0199 0.447107 56.9444 97.065 86.7491 203.276Z" fill="rgb(128,189,204)" fill-rule="nonzero" transform="matrix(-1,0,0,1,235.824,165.334)" />
		<path id="Vector" d="M45.9952 112.43C45.9952 112.43 24.9918 124.786 0.0260063 115.681C-0.254508 115.559 1.67399 3.78018 8.75698 0.691004C10.3699 3.04853 15.2088 5.40605 19.5217 5.28411C24.5008 5.16217 26.1138 2.6827 25.8333 0C31.128 3.41435 35.3708 6.66612 35.3708 6.66612C39.859 15.7304 45.9952 112.43 45.9952 112.43Z" fill="rgb(241,163,79)" fill-rule="nonzero" transform="matrix(-1,0,0,1,236.236,59.3669)" />
		<path id="Vector" d="M16.4802 47.0635C14.3413 50.5998 10.2388 71.9801 0 74.6628C5.25964 59.4202 9.29202 52.7134 9.88811 48.039C11.0452 39.2999 11.0804 30.2356 10.4843 21.6997C13.9206 14.7491 16.4802 9.95276 16.4802 9.95276C16.7607 8.81465 21.9152 -9.72037 23.5983 6.8636C25.2463 23.4882 18.8996 43.1614 16.4802 47.0635Z" fill="rgb(95,154,168)" fill-rule="nonzero" transform="matrix(-1,0,0,1,252.374,89.0452)" />
		<path id="Vector" d="M20.4877 39.5962C20.4877 39.5962 0.255581 40.0026 0.220517 25.3697C0.220517 10.7368 -2.40929 0.940888 10.4944 0.0873009C23.4331 -0.766286 25.9226 4.80234 26.9746 9.67998C28.0265 14.5576 25.7473 39.1084 20.4877 39.5962Z" fill="rgb(255,178,125)" fill-rule="nonzero" transform="matrix(-1,0,0,1,227.664,12.7795)" />
		<path id="Vector" d="M26.2631 2.95637C26.2631 2.95637 20.7229 20.1094 12.2023 22.6295C3.68168 25.1496 0 22.5076 0 22.5076C0 22.5076 6.52195 16.4918 7.88946 6.00489C7.88946 6.04554 22.0554 -5.17303 26.2631 2.95637Z" fill="rgb(22,53,96)" fill-rule="nonzero" transform="matrix(-1,0,0,1,234.176,9.54468)" />
		<path id="Vector" d="M0 2.79848C0 2.79848 4.13757 6.61929 5.15443 10.3588C6.1713 14.0983 6.62711 21.74 8.55565 21.4961C8.55565 21.4961 12.7283 9.8304 8.02969 3.24558C3.05056 -3.78635 0 2.79848 0 2.79848Z" fill="rgb(22,53,96)" fill-rule="nonzero" transform="matrix(-1,0,0,1,209.315,11.1252)" />
		<path id="Vector" d="M0 10.4029C0 10.4029 2.84026 -1.50663 14.166 0.1599C15.4634 0.647664 19.2503 2.39548 16.8309 7.06989C15.0426 10.5249 14.2712 8.73643 11.4661 13.4108C8.66094 18.0852 5.61028 19.1421 2.10386 18.573L0 10.4029Z" fill="rgb(255,178,125)" fill-rule="nonzero" transform="matrix(-1,0,0,1,125.722,66.239)" />
		<path id="Vector" d="M15.8139 38.9398C15.1127 34.55 13.8153 26.949 13.8153 26.949L14.1309 0L0 0L5.29465 25.8108C5.39985 26.9896 5.68041 31.664 4.20771 36.5823C4.20771 36.5823 2.84021 43.7362 8.94139 43.8581C15.0075 43.9801 16.4802 43.3297 15.8139 38.9398Z" fill="rgb(255,178,125)" fill-rule="nonzero" transform="matrix(-1,0,0,1,238.138,357.838)" />
		<path id="Vector" d="M12.8553 10.9747L0.197037 10.9747C-0.43412 7.15387 0.65289 0.203235 0.65289 0.203235C7.52549 7.92616 11.8384 0 11.8384 0C12.8904 3.04852 12.8553 9.83657 12.8553 10.9747Z" fill="rgb(196,84,70)" fill-rule="nonzero" transform="matrix(-1,0,0,1,234.618,394.217)" />
		<path id="Vector" d="M32.0923 24.5508L16.4887 24.5508C15.1212 23.0875 13.8238 20.2016 12.2459 16.462C11.3343 14.3077 9.26546 13.0883 7.1616 12.438L7.1616 24.5508L3.93571 24.5508L0.955244 11.6657C-1.04342 7.31644 0.499392 3.41435 1.90196 0C3.51492 0 8.21356 1.3007 16.4887 12.3973C19.2237 16.0556 22.2042 17.3563 25.2197 17.2343C25.2548 17.275 25.2899 17.275 25.36 17.3156C30.0236 19.7544 31.5664 22.803 32.0923 24.5508Z" fill="rgb(196,84,70)" fill-rule="nonzero" transform="matrix(-1,0,0,1,157.148,380.722)" />
		<path id="Vector" d="M84.6451 17.2343C84.6451 17.2343 71.3558 25.8515 66.6221 28.3309C63.9222 29.7536 57.6807 33.1273 53.2977 35.5255C50.4926 37.0294 47.1965 36.2165 45.1978 33.4931C38.0096 23.7378 19.2503 2.60141 0 0C0 0 11.7114 33.5337 12.0621 40.3218C12.4127 47.1098 13.4296 151.329 13.4296 151.329C13.4296 151.329 12.7283 156.125 20.6528 154.133C28.5774 152.142 30.6461 150.15 30.6461 150.15C30.6461 150.15 23.0723 85.8464 25.1411 63.4906C25.5618 59.1007 25.1761 54.1418 24.3346 49.0203C36.0811 57.3122 49.9666 60.9705 49.9666 60.9705C49.9666 60.9705 60.3456 55.727 74.5467 43.6549C78.9998 39.8747 86.8192 25.445 86.8192 25.445L84.6451 17.2343Z" fill="rgb(182,76,65)" fill-rule="nonzero" transform="matrix(-1,0,0,1,210.367,59.4077)" />
		<path id="Vector" d="M70.8649 162.344L62.0989 162.669C62.0989 162.669 41.8316 136.533 30.4708 94.5855C30.1903 93.61 29.9098 92.6345 29.6293 91.6183C23.4229 70.6038 10.5193 44.1833 3.71685 20.3235C2.62985 16.5027 1.64804 12.9257 0.806495 9.55204C0.525981 8.45457 0.24545 7.39774 0 6.34092L7.22327 0C7.22327 0 28.9281 40.7283 35.6253 79.0584C41.446 112.348 64.8339 152.386 70.8649 162.344Z" fill="rgb(95,154,168)" fill-rule="nonzero" transform="matrix(-1,0,0,1,228.075,206.55)" />
		<path id="Vector" d="M37.624 93.4474C37.7642 112.104 36.9227 154.946 34.8539 172.668L27.0697 172.668C22.7918 172.668 20.6178 172.587 20.6178 172.587C15.3582 141.736 11.6414 116.21 8.90638 94.2197C6.66226 76.1724 4.69861 60.686 3.15578 47.3944C1.61296 33.9809 0.561028 22.7623 0.175321 13.2915C0.105193 11.7876 0.0701628 10.365 0.0350985 8.94234C3.42429e-05 7.51969 0 6.13767 0 4.79632L42.3928 0C41.9369 32.6395 37.5539 82.5947 37.624 93.4474Z" fill="rgb(128,189,204)" fill-rule="nonzero" transform="matrix(-1,0,0,1,257.739,195.738)" />
		<path id="Vector" d="M26.8944 159.377C22.6165 159.377 20.4425 159.296 20.4425 159.296C15.1828 128.444 11.4661 102.918 8.73106 80.9281C6.48694 62.8809 4.52329 47.3944 2.98046 34.1028C1.43764 20.6893 0.385707 9.47075 0 0L15.5686 10.6089C15.5686 10.6089 5.6454 14.6735 9.43234 45.4027C13.2193 76.1318 21.6347 155.028 26.8944 159.377Z" fill="rgb(95,154,168)" fill-rule="nonzero" transform="matrix(-1,0,0,1,257.564,209.029)" />
		<path id="Vector" d="M38.3604 148.646C38.3604 148.646 35.3799 161.165 25.0359 159.539C14.692 157.954 0 150.76 0 150.76C0 150.76 4.41817 134.582 9.88819 113.324C9.95832 113.121 9.99339 112.877 10.0635 112.633C16.5504 87.5536 24.4749 55.6051 28.4021 34.8345C28.4722 34.3874 28.5775 33.9402 28.6476 33.5338C29.7346 27.6806 30.4709 22.7623 30.7514 19.2667L39.4824 0C39.4824 0 52.1055 33.2492 52.8068 41.6225C53.5432 50.0365 38.3604 148.646 38.3604 148.646Z" fill="rgb(182,76,65)" fill-rule="nonzero" transform="matrix(-1,0,0,1,267.031,60.0581)" />
		<path id="Vector" d="M18.0866 40.3625L29.5526 0C29.5176 0 15.1061 4.9183 7.91792 9.10494C7.91792 9.10494 3.42971 15.8117 0.659631 31.2575C0.659631 31.2575 -2.28575 68.3682 4.27127 81.9443C4.27127 81.9443 24.9241 86.7407 57.9897 73.5711L57.9897 64.7913C57.9897 64.7913 21.8384 66.9863 14.4048 68.0024L18.0866 40.3625Z" fill="rgb(255,178,125)" fill-rule="nonzero" transform="matrix(-1,0,0,1,257.066,60.0986)" />
		<path id="Vector" d="M26.8242 24.3475C26.3683 37.761 23.6684 63.5719 0 77.7983C6.48689 52.7191 14.4114 20.7706 18.3386 0C22.6515 7.64163 27.0696 17.275 26.8242 24.3475Z" fill="rgb(165,61,56)" fill-rule="nonzero" transform="matrix(-1,0,0,1,256.933,94.9331)" />
		<path id="Vector" d="M30.6435 0C30.6435 0 9.49967 1.70719 4.45041 14.7549C-0.598844 27.8026 -2.21178 71.1729 4.20498 83.9767C4.20498 83.9767 13.0412 86.9033 28.715 83.4889C28.8903 83.4483 29.1006 83.4076 29.311 83.367C29.311 83.367 34.2902 69.1812 29.837 66.4172C29.837 66.4172 16.6178 67.2301 18.0204 62.1493C19.3879 57.0684 30.6435 0 30.6435 0Z" fill="rgb(182,76,65)" fill-rule="nonzero" transform="matrix(-1,0,0,1,258.157,60.0986)" />
		<path id="Vector" d="M0.00101249 16.6691C0.00101249 16.6691 2.87628 12.6044 3.50744 8.49903C4.1386 4.35304 6.03212 1.30452 11.0112 0.532228C15.9904 -0.240064 18.1293 -0.321348 18.0942 1.30453C18.0942 2.93041 14.0267 14.2709 6.90866 21.059C-0.244454 27.847 0.00101249 16.6691 0.00101249 16.6691Z" fill="rgb(255,178,125)" fill-rule="nonzero" transform="matrix(-1,0,0,1,202.759,110.538)" />
		<g id="Group">
			<g id="Group">
				<path id="Vector" d="M117.934 332.492C117.934 332.492 105.312 317.493 117.135 307.941C117.135 307.941 125.803 302.616 132.874 303.023C132.874 303.023 122.847 320.094 126.083 321.801C129.319 323.509 135.87 301.966 135.87 301.966C135.87 301.966 155.602 300.015 161.914 303.104C161.914 303.104 145.057 317.127 148.612 317.981C152.167 318.834 170.382 305.055 170.382 305.055C170.382 305.055 188.717 308.225 187.758 319.607C186.8 330.988 180.448 334.524 177.692 334.199C174.896 333.914 158.678 327.573 158.319 329.89C157.959 332.207 167.746 339.767 174.616 340.133C174.616 340.133 161.674 354.644 153.086 350.458C144.498 346.271 143.739 339.645 138.386 337.125C133.033 334.646 128.44 334.646 130.677 337.166C132.914 339.686 142.58 342.166 145.656 347.694C148.732 353.222 151.488 356.92 142.58 355.579C133.673 354.197 119.212 347.612 118.573 340.011C117.934 332.492 117.934 332.492 117.934 332.492Z" fill="rgb(130,179,120)" fill-rule="nonzero" />
				<g id="Group">
					<path id="Vector" d="M178.771 319.932C178.771 319.932 128.919 317.981 117.934 332.492C117.934 332.492 115.497 339.889 108.028 346.677L106.869 349.929C106.869 349.929 115.497 340.662 118.613 340.093C118.573 340.093 113.74 322.086 178.771 319.932Z" fill="rgb(130,179,120)" fill-rule="nonzero" />
					<path id="Vector" d="M107.988 346.678C107.988 346.678 97.2824 354.726 96.5634 369.115L98.5206 369.277C98.5206 369.277 101.956 354.4 108.107 348.588C114.259 342.775 107.988 346.678 107.988 346.678Z" fill="rgb(130,179,120)" fill-rule="nonzero" />
				</g>
			</g>
			<g id="Group">
				<path id="Vector" d="M73.7545 313.631C73.7545 313.631 93.847 302.169 84.4599 286.642C84.4599 286.642 76.9502 277.09 68.9212 274.651C68.9212 274.651 73.1954 297.82 68.9212 298.389C64.6471 298.917 65.9652 272.212 65.9652 272.212C65.9652 272.212 44.7943 261.847 36.4856 262.66C36.4856 262.66 49.6277 285.3 45.3136 284.772C41.0394 284.243 26.2996 261.319 26.2996 261.319C26.2996 261.319 4.56949 257.213 1.09425 270.302C-2.38098 283.39 3.25126 289.934 6.44687 290.747C9.68243 291.56 30.2942 291.275 29.7749 294.039C29.2556 296.763 15.3147 301.112 7.52537 298.673C7.52537 298.673 16.1137 320.216 27.3782 319.119C38.6428 318.021 42.118 310.949 49.1084 310.379C56.0588 309.851 61.1718 311.761 57.6966 313.672C54.2214 315.582 42.3976 314.282 36.8052 319.159C31.173 324.037 26.6192 327.045 37.0848 329.199C47.5505 331.394 66.3247 330.012 70.0396 321.842C73.7545 313.631 73.7545 313.631 73.7545 313.631Z" fill="rgb(168,210,159)" fill-rule="nonzero" />
				<g id="Group">
					<path id="Vector" d="M11.0007 274.326C11.0007 274.326 67.2835 292.861 73.7147 313.591C73.7147 313.591 73.4351 322.858 79.0673 333.508L79.0673 337.613C79.0673 337.613 73.1554 323.712 69.9598 321.801C69.9997 321.801 82.5825 303.795 11.0007 274.326Z" fill="rgb(130,179,120)" fill-rule="nonzero" />
					<path id="Vector" d="M79.1073 333.548C79.1073 333.548 87.7753 346.962 82.8221 363.302L80.5852 362.692C80.5852 362.692 82.7422 344.685 78.2284 335.662C73.7146 326.638 79.1073 333.548 79.1073 333.548Z" fill="rgb(130,179,120)" fill-rule="nonzero" />
				</g>
			</g>
			<g id="Group">
				<path id="Vector" d="M105.711 297.82C105.711 297.82 79.2271 282.699 91.5702 262.213C91.5702 262.213 101.477 249.612 112.062 246.401C112.062 246.401 106.39 276.968 112.062 277.699C117.734 278.431 115.937 243.19 115.937 243.19C115.937 243.19 143.858 229.533 154.803 230.59C154.803 230.59 137.507 260.424 143.139 259.733C148.772 259.042 168.225 228.801 168.225 228.801C168.225 228.801 196.866 223.395 201.459 240.67C206.053 257.945 198.623 266.562 194.389 267.619C190.155 268.716 162.952 268.351 163.631 271.928C164.35 275.504 182.725 281.276 192.951 278.025C192.951 278.025 181.647 306.437 166.787 304.974C151.927 303.551 147.334 294.202 138.146 293.47C128.959 292.739 122.248 295.259 126.842 297.779C131.436 300.299 146.974 298.592 154.404 305.014C161.834 311.436 167.826 315.379 154.044 318.265C140.263 321.151 115.537 319.363 110.584 308.55C105.711 297.82 105.711 297.82 105.711 297.82Z" fill="rgb(168,210,159)" fill-rule="nonzero" />
				<g id="Group">
					<path id="Vector" d="M188.397 246.036C188.397 246.036 114.179 270.505 105.711 297.82C105.711 297.82 106.07 310.055 98.6405 324.078L98.6405 329.484C98.6405 329.484 106.43 311.152 110.664 308.632C110.664 308.591 94.0468 284.854 188.397 246.036Z" fill="rgb(130,179,120)" fill-rule="nonzero" />
					<path id="Vector" d="M98.6404 324.078C98.6404 324.078 87.2161 341.759 93.7271 363.302L96.6831 362.489C96.6831 362.489 93.807 338.792 99.7988 326.842C105.791 314.932 98.6404 324.078 98.6404 324.078Z" fill="rgb(130,179,120)" fill-rule="nonzero" />
				</g>
			</g>
			<path id="Vector" d="M104.832 409.965C133.513 409.965 156.761 386.308 156.761 357.124L52.9032 357.124C52.9032 386.308 76.1513 409.965 104.832 409.965Z" fill="rgb(241,163,79)" fill-rule="nonzero" />
			<path id="Vector" d="M117.615 409.558C115.497 409.843 113.34 409.965 111.183 409.965C82.5026 409.965 59.2545 386.308 59.2545 357.124L72.1568 357.124C72.1568 384.073 91.9697 406.307 117.615 409.558Z" fill="rgb(255,185,115)" fill-rule="nonzero" />
			<path id="Vector" d="M157.48 412.648L52.2242 412.648C52.2242 409.03 55.1003 406.144 58.6155 406.144L151.089 406.144C154.604 406.144 157.48 409.03 157.48 412.648Z" fill="rgb(241,163,79)" fill-rule="nonzero" />
			<path id="Vector" d="M157.959 357.124L51.2256 357.124L51.2256 358.75L157.959 358.75L157.959 357.124Z" fill="rgb(216,103,19)" fill-rule="evenodd" />
		</g>
	</g>
</svg>
