<svg viewBox="0 0 135.02 12.6987" xmlns="http://www.w3.org/2000/svg" xmlns:xlink="http://www.w3.org/1999/xlink" width="135.019714" height="12.698730" fill="none" customFrame="#000000">
	<path id="Выделение" d="M2.50977 9.71554L10.7703 3.33452C12.2485 2.19262 14.3202 2.22585 15.7611 3.41455L22.8733 9.28214C24.3513 10.5015 26.4864 10.5015 27.9644 9.28214L34.9945 3.48227C36.4725 2.26292 38.6076 2.26292 40.0856 3.48227L47.1157 9.28214C48.5937 10.5015 50.7288 10.5015 52.2068 9.28214L59.237 3.48227C60.715 2.26292 62.85 2.26292 64.328 3.48227L71.3582 9.28214C72.8362 10.5015 74.9712 10.5015 76.4492 9.28214L83.4794 3.48226C84.9574 2.26292 87.0925 2.26292 88.5704 3.48226L95.6006 9.28214C97.0786 10.5015 99.2137 10.5015 100.692 9.28214L107.722 3.48227C109.2 2.26292 111.335 2.26292 112.813 3.48227L119.846 9.28424C121.322 10.5026 123.456 10.5037 124.934 9.28673L132.51 3.04887" stroke="rgb(104.125,104.125,104.125)" stroke-linecap="round" stroke-width="5" />
</svg>
