<svg viewBox="0 0 281 281" xmlns="http://www.w3.org/2000/svg" xmlns:xlink="http://www.w3.org/1999/xlink" width="281.000000" height="281.000000" fill="none" customFrame="#000000">
	<defs>
		<g id="pixso_custom_effect_0">
			<effect x="5.000000" y="5.000000" visibility="visible" fill="rgb(0,0,0)" fill-opacity="0.100000001" effectType="dropShadow" stdDeviation="15" radius="0" />
		</g>
		<filter id="filter_0" width="281.000000" height="281.000000" x="0.000000" y="0.000000" filterUnits="userSpaceOnUse" customEffect="url(#pixso_custom_effect_0)" color-interpolation-filters="sRGB">
			<feFlood flood-opacity="0" result="BackgroundImageFix" />
			<feOffset dx="5.000000" dy="5.000000" in="SourceAlpha" />
			<feGaussianBlur stdDeviation="5" />
			<feColorMatrix type="matrix" values="0 0 0 0 0 0 0 0 0 0 0 0 0 0 0 0 0 0 0.1 0 " />
			<feBlend result="effect_dropShadow_1" in2="BackgroundImageFix" mode="normal" />
			<feBlend result="shape" in="SourceGraphic" in2="effect_dropShadow_1" mode="normal" />
		</filter>
	</defs>
	<g filter="url(#filter_0)">
		<path id="Vector" d="M261 135.5C261 168.785 247.778 200.706 224.242 224.242C200.706 247.778 168.785 261 135.5 261C102.215 261 70.2939 247.778 46.7581 224.242C23.2223 200.706 10 168.785 10 135.5C10 102.215 23.2223 70.2939 46.7581 46.7581C70.2939 23.2223 102.215 10 135.5 10C168.785 10 200.706 23.2223 224.242 46.7581C247.778 70.2939 261 102.215 261 135.5ZM198.721 87.9669C197.6 86.8502 196.266 85.971 194.798 85.3818C193.33 84.7926 191.758 84.5056 190.176 84.5378C188.594 84.57 187.035 84.9208 185.593 85.5693C184.15 86.2178 182.852 87.1506 181.778 88.312L127.295 157.729L94.4615 124.88C92.2311 122.801 89.2812 121.67 86.2331 121.724C83.185 121.777 80.2767 123.012 78.1211 125.168C75.9654 127.324 74.7306 130.232 74.6768 133.28C74.623 136.328 75.7545 139.278 77.8327 141.508L119.342 183.033C120.46 184.149 121.792 185.029 123.257 185.619C124.723 186.21 126.292 186.499 127.872 186.47C129.452 186.44 131.009 186.093 132.452 185.449C133.895 184.805 135.193 183.876 136.269 182.719L198.893 104.439C201.028 102.219 202.208 99.2505 202.178 96.1708C202.149 93.091 200.913 90.1456 198.736 87.9669L198.721 87.9669Z" fill="rgb(184,217,2)" fill-rule="nonzero" />
		<path id="Vector" d="M224.242 224.242C247.778 200.706 261 168.785 261 135.5C261 102.215 247.778 70.2939 224.242 46.7581C200.706 23.2223 168.785 10 135.5 10C102.215 10 70.2939 23.2223 46.7581 46.7581C23.2223 70.2939 10 102.215 10 135.5C10 168.785 23.2223 200.706 46.7581 224.242C70.2939 247.778 102.215 261 135.5 261C168.785 261 200.706 247.778 224.242 224.242ZM230.448 212.906C227.835 216.11 225.059 219.182 222.121 222.121C219.178 225.063 216.102 227.843 212.892 230.459C209.868 232.924 206.725 235.244 203.463 237.419C200.186 239.604 196.82 241.622 193.364 243.474C189.798 245.385 186.136 247.119 182.379 248.675C178.63 250.228 174.824 251.589 170.959 252.757C167.198 253.895 163.381 254.851 159.51 255.624C155.665 256.393 151.801 256.975 147.918 257.371C143.8 257.79 139.661 258 135.5 258C131.34 258 127.202 257.79 123.085 257.371C119.201 256.975 115.336 256.393 111.49 255.624C107.621 254.851 103.806 253.896 100.047 252.759C96.1801 251.59 92.3717 250.229 88.6213 248.675C84.8583 247.117 81.1909 245.38 77.6189 243.465C74.1692 241.616 70.8085 239.6 67.5369 237.419C64.2708 235.241 61.1235 232.917 58.0949 230.448C54.8901 227.835 51.8183 225.059 48.8794 222.121C45.9395 219.181 43.1627 216.108 40.5492 212.902C38.0811 209.874 35.7585 206.728 33.5815 203.463C31.3951 200.184 29.3757 196.816 27.5231 193.359C25.6129 189.794 23.8802 186.134 22.3248 182.379C20.7703 178.626 19.4083 174.815 18.2386 170.946C17.1028 167.189 16.1485 163.377 15.3755 159.51C14.6067 155.664 14.0245 151.799 13.629 147.915C13.2097 143.798 13 139.66 13 135.5C13 131.34 13.2097 127.202 13.629 123.085C14.0246 119.201 14.6068 115.336 15.3755 111.49C16.1483 107.624 17.1024 103.813 18.2379 100.056C19.4077 96.1866 20.77 92.3748 22.3248 88.6213C23.8796 84.8676 25.6117 81.2088 27.5211 77.6451C29.3742 74.1862 31.3943 70.8168 33.5815 67.5369C35.7568 64.2746 38.0775 61.1307 40.5435 58.1053C43.1587 54.8968 45.9373 51.8215 48.8794 48.8794C51.8211 45.9378 54.8959 43.1595 58.1038 40.5447C61.1297 38.0782 64.2741 35.7572 67.5369 33.5815C70.8167 31.3944 74.186 29.3743 77.6448 27.5212C81.2086 25.6118 84.8675 23.8796 88.6213 22.3248C92.375 20.7699 96.187 19.4076 100.057 18.2377C103.813 17.1023 107.624 16.1483 111.49 15.3755C115.337 14.6066 119.203 14.0243 123.087 13.6287C127.204 13.2096 131.341 13 135.5 13C139.659 13 143.796 13.2095 147.912 13.6286C151.797 14.0242 155.663 14.6065 159.51 15.3755C163.376 16.1483 167.187 17.1023 170.943 18.2378C174.813 19.4076 178.625 20.7699 182.379 22.3248C186.134 23.8802 189.794 25.613 193.359 27.5232C196.816 29.3758 200.184 31.3952 203.463 33.5815C206.727 35.7581 209.873 38.0801 212.9 40.5477C216.107 43.1617 219.18 45.9389 222.121 48.8794C225.059 51.8178 227.834 54.8891 230.447 58.0933C232.916 61.1224 235.24 64.2703 237.419 67.5369C239.6 70.8081 241.615 74.1684 243.464 77.6177C245.379 81.19 247.116 84.8579 248.675 88.6213C250.228 92.3694 251.588 96.1756 252.757 100.04C253.895 103.802 254.851 107.618 255.624 111.49C256.393 115.336 256.975 119.201 257.371 123.084C257.79 127.202 258 131.34 258 135.5C258 139.66 257.79 143.798 257.371 147.915C256.975 151.799 256.393 155.664 255.624 159.51C254.851 163.378 253.897 167.19 252.761 170.948C251.591 174.817 250.229 178.627 248.675 182.379C247.116 186.143 245.379 189.811 243.464 193.384C241.615 196.832 239.6 200.192 237.419 203.463C235.241 206.729 232.917 209.877 230.448 212.906ZM197.263 83.2186C196.825 82.9895 196.376 82.7826 195.915 82.5976C195.455 82.4129 194.987 82.2521 194.513 82.1151C194.039 81.978 193.557 81.8648 193.068 81.7756C192.58 81.6864 192.09 81.6221 191.598 81.5826C191.106 81.543 190.611 81.5283 190.115 81.5384C189.619 81.5485 189.125 81.5833 188.635 81.6429C188.145 81.7024 187.658 81.7867 187.174 81.8957C186.689 82.0047 186.212 82.1374 185.744 82.2938C185.275 82.4499 184.815 82.6297 184.363 82.833C183.91 83.0367 183.469 83.262 183.041 83.5089C182.613 83.7553 182.198 84.0232 181.796 84.3126C181.393 84.6024 181.006 84.9107 180.636 85.2378C180.266 85.5649 179.913 85.9106 179.576 86.275L179.493 86.3642L127.025 153.215L96.5456 122.721L96.5067 122.685C96.1506 122.353 95.78 122.04 95.395 121.747C95.0266 121.466 94.6451 121.202 94.2502 120.956C93.8539 120.709 93.4478 120.482 93.0319 120.274C92.6076 120.063 92.173 119.872 91.7282 119.701C91.2837 119.531 90.8331 119.382 90.3764 119.256C89.9281 119.132 89.4739 119.029 89.0139 118.948C88.5546 118.866 88.0936 118.807 87.6308 118.77C87.1492 118.731 86.6656 118.716 86.1801 118.724C85.2237 118.741 84.2863 118.847 83.3679 119.042C82.4496 119.238 81.5503 119.522 80.6699 119.896C80.2309 120.083 79.8028 120.289 79.3858 120.516C78.978 120.738 78.5806 120.979 78.1938 121.239C77.8075 121.499 77.435 121.777 77.0765 122.071C76.7024 122.378 76.3435 122.703 75.9997 123.047C75.6557 123.391 75.3301 123.75 75.0231 124.124C74.7293 124.482 74.4524 124.855 74.1925 125.241C73.9322 125.627 73.6912 126.024 73.4695 126.432C73.2426 126.849 73.0358 127.277 72.8493 127.717C72.6629 128.156 72.4983 128.602 72.3558 129.055C72.2165 129.498 72.0981 129.947 72.0007 130.403C71.9034 130.858 71.828 131.316 71.7742 131.777C71.7182 132.257 71.6859 132.741 71.6773 133.227C71.6687 133.712 71.6839 134.196 71.7228 134.678C71.7603 135.14 71.8196 135.601 71.9009 136.061C71.9823 136.52 72.0849 136.974 72.2087 137.422C72.3351 137.879 72.4836 138.33 72.6542 138.775C72.825 139.22 73.0163 139.655 73.2282 140.08C73.4355 140.495 73.6625 140.901 73.9092 141.297C74.156 141.693 74.4202 142.076 74.702 142.445C74.9951 142.829 75.307 143.198 75.6379 143.553L75.6739 143.592L117.22 185.154C117.61 185.543 118.019 185.908 118.447 186.25C118.791 186.524 119.147 186.783 119.516 187.027C119.93 187.3 120.355 187.551 120.792 187.78C121.228 188.01 121.677 188.217 122.136 188.402C122.596 188.587 123.063 188.749 123.537 188.886C124.01 189.024 124.491 189.137 124.978 189.227C125.465 189.317 125.954 189.382 126.445 189.422C126.937 189.463 127.431 189.478 127.927 189.469C128.425 189.46 128.92 189.426 129.412 189.367C129.9 189.308 130.384 189.225 130.866 189.118C131.348 189.01 131.823 188.88 132.29 188.725C132.76 188.57 133.221 188.391 133.675 188.188C134.127 187.986 134.566 187.763 134.993 187.519C135.422 187.273 135.839 187.006 136.243 186.717C136.645 186.429 137.031 186.122 137.401 185.798C137.772 185.471 138.127 185.126 138.465 184.763L138.542 184.681L201.155 106.414C201.459 106.091 201.748 105.756 202.021 105.409C202.31 105.041 202.581 104.66 202.835 104.265C203.09 103.869 203.325 103.462 203.54 103.045C203.759 102.619 203.958 102.182 204.135 101.735C204.313 101.288 204.468 100.834 204.601 100.374C204.731 99.9232 204.839 99.4659 204.926 99.0023C205.013 98.5405 205.077 98.0766 205.119 97.6108C205.163 97.1234 205.183 96.6339 205.178 96.1422C205.173 95.6485 205.144 95.1574 205.091 94.6691C205.04 94.2061 204.967 93.7455 204.872 93.2874C204.777 92.8292 204.661 92.3775 204.524 91.9323C204.381 91.4713 204.217 91.0173 204.029 90.5703C203.842 90.1242 203.634 89.6893 203.405 89.2657C203.183 88.855 202.942 88.4548 202.681 88.0652C202.419 87.6748 202.141 87.2986 201.844 86.9365C201.535 86.5577 201.206 86.1943 200.859 85.8465L199.98 84.9669L199.88 84.9669C199.832 84.9273 199.785 84.8881 199.737 84.8493C199.354 84.5374 198.955 84.2448 198.54 83.9715C198.126 83.6985 197.7 83.4475 197.263 83.2186ZM198.721 87.9669C197.6 86.8502 196.266 85.971 194.798 85.3818C193.33 84.7926 191.758 84.5056 190.176 84.5378C188.594 84.57 187.035 84.9208 185.593 85.5693C184.15 86.2178 182.852 87.1506 181.778 88.312L129.161 155.352L127.295 157.729L125.159 155.592L94.4615 124.88C92.2311 122.801 89.2812 121.67 86.2331 121.724C83.185 121.777 80.2767 123.012 78.1211 125.168C75.9654 127.324 74.7306 130.232 74.6768 133.28C74.623 136.328 75.7545 139.278 77.8327 141.508L119.342 183.033C120.46 184.149 121.792 185.029 123.257 185.619C124.723 186.21 126.292 186.499 127.872 186.47C129.452 186.44 131.009 186.093 132.452 185.449C133.895 184.805 135.193 183.876 136.269 182.719L198.893 104.439C201.028 102.219 202.208 99.2505 202.178 96.1708C202.149 93.091 200.913 90.1456 198.736 87.9669L198.721 87.9669Z" fill="rgb(255,255,255)" fill-rule="evenodd" />
	</g>
</svg>
