<svg viewBox="0 0 100.512 9.01225" xmlns="http://www.w3.org/2000/svg" xmlns:xlink="http://www.w3.org/1999/xlink" width="100.512268" height="9.012253" fill="none" customFrame="#000000">
	<path id="Выделение" d="M1.5061 7.50613L6.78674 2.61116C8.35794 1.15472 10.7977 1.1948 12.3202 2.70208L15.8737 6.2201C17.4325 7.76329 19.9433 7.76329 21.5021 6.2201L24.9647 2.79217C26.5234 1.24898 29.0342 1.24898 30.593 2.79217L34.0556 6.2201C35.6143 7.76329 38.1251 7.76329 39.6839 6.2201L43.1465 2.79217C44.7052 1.24898 47.216 1.24898 48.7748 2.79217L52.2374 6.2201C53.7962 7.76329 56.307 7.76329 57.8657 6.2201L61.3283 2.79217C62.8871 1.24898 65.3979 1.24898 66.9566 2.79217L70.4192 6.2201C71.978 7.76329 74.4888 7.76329 76.0476 6.2201L79.5101 2.79217C81.0689 1.24898 83.5797 1.24898 85.1385 2.79217L88.6038 6.22288C90.1615 7.76498 92.6701 7.76623 94.2293 6.22569L99.0061 1.50613" stroke="rgb(46.9625,111.987,216.75)" stroke-linecap="round" stroke-width="3" />
</svg>
